<?xml version="1.0" encoding="iso-8859-1"?>
<!-- Generator: Adobe Illustrator 19.1.0, SVG Export Plug-In . SVG Version: 6.00 Build 0)  -->
<svg version="1.1" id="&#x5716;&#x5C64;_2" xmlns="http://www.w3.org/2000/svg" xmlns:xlink="http://www.w3.org/1999/xlink" x="0px"
	 y="0px" viewBox="0 0 300.683 76.479" style="enable-background:new 0 0 300.683 76.479;" xml:space="preserve">
<g>
	<polygon style="fill:#010101;" points="13.373,0.25 0.355,0.25 0.355,76.479 13.373,76.479 13.373,11.375 51.691,11.375 
		51.691,0.273 13.373,0.25 	"/>
	<polygon style="fill:#010101;" points="13.67,44.016 46.479,44.339 46.479,33.044 24.642,33.044 	"/>
	<polygon style="fill:#010101;" points="93.003,-0.099 79.212,-0.099 79.212,76.32 92.777,76.338 92.777,76.338 129.486,76.338 
		129.486,64.908 93.003,64.908 	"/>
	<polygon style="fill:#010101;" points="300.328,0.334 243.83,0.244 243.83,11.769 300.264,11.435 242.973,60.243 243.01,76.314 
		300.269,76.174 300.269,65.241 255.902,65.241 300.328,26.662 	"/>
	<path style="fill:#010101;" d="M215.507,0.279h-13.149v51.2c0,0,0,0,0,0.001c-0.008,0.128-0.75,11.566-12.562,14.879
		c-0.531,0.149-1.087,0.209-1.638,0.209l-7.857,0c-0.991,0-1.969-0.181-2.89-0.545c-3.172-1.251-9.977-4.922-11.02-13.647l0-52.098
		h-13.149v51.937v0.16c0,0,2.35,20.676,19.773,23.844l22.163,0c0,0,0,0,0,0c0,0,17.783-3.612,20.33-24.742L215.507,0.279z"/>
</g>
</svg>
