<?xml version="1.0" encoding="UTF-8"?>
<svg width="54px" height="54px" viewBox="0 0 54 54" version="1.1" xmlns="http://www.w3.org/2000/svg" xmlns:xlink="http://www.w3.org/1999/xlink">
    <!-- Generator: Sketch 47.1 (45422) - http://www.bohemiancoding.com/sketch -->
    <title>instagram (3)</title>
    <desc>Created with Sketch.</desc>
    <defs></defs>
    <g id="Page-1" stroke="none" stroke-width="1" fill="none" fill-rule="evenodd">
        <g id="Abtitu-Web2" transform="translate(-1233.000000, -5223.000000)">
            <g id="Group-43" transform="translate(379.000000, 5042.000000)">
                <g id="social-media-logo" transform="translate(780.000000, 181.000000)">
                    <g id="instagram-(3)" transform="translate(74.871134, 0.000000)">
                        <circle id="Oval-8" fill="#FFFFFF" cx="26.3151489" cy="26.3151489" r="20.992984"></circle>
                        <path d="M34.449191,14.1214777 L18.6293514,14.1214777 C16.1042798,14.1214777 14.0499241,16.1758333 14.0499241,18.7009049 L14.0499241,34.5207446 C14.0499241,37.0458162 16.1042798,39.1007632 18.6293514,39.1007632 L34.449191,39.1007632 C36.9742626,39.1007632 39.0292096,37.0464075 39.0292096,34.5207446 L39.0292096,18.7009049 C39.0292096,16.1758333 36.974854,14.1214777 34.449191,14.1214777 Z M26.5392712,34.8341609 C22.005378,34.8341609 18.3165263,31.1453093 18.3165263,26.6108247 C18.3165263,22.0769316 22.005378,18.3880799 26.5392712,18.3880799 C31.0737557,18.3880799 34.7626074,22.0769316 34.7626074,26.6108247 C34.7626074,31.1447179 31.0731644,34.8341609 26.5392712,34.8341609 Z M35.0269416,20.0882159 C33.9536383,20.0882159 33.0808033,19.2153809 33.0808033,18.142669 C33.0808033,17.069957 33.9536383,16.197122 35.0269416,16.197122 C36.0996535,16.197122 36.9724885,17.069957 36.9724885,18.142669 C36.9724885,19.2153809 36.0996535,20.0882159 35.0269416,20.0882159 Z" id="Shape" fill="#B8B8B8" fill-rule="nonzero"></path>
                        <path d="M26.5392712,21.8628623 C23.9219487,21.8628623 21.7907174,23.9929109 21.7907174,26.6102334 C21.7907174,29.2287385 23.9219487,31.3593786 26.5392712,31.3593786 C29.1577763,31.3593786 31.2872337,29.2287385 31.2872337,26.6102334 C31.2872337,23.9935023 29.157185,21.8628623 26.5392712,21.8628623 Z" id="Shape" fill="#B8B8B8" fill-rule="nonzero"></path>
                        <path d="M26.5392712,0 C11.8826203,0 0,11.8826203 0,26.5392712 C0,41.1959221 11.8826203,53.0785424 26.5392712,53.0785424 C41.1959221,53.0785424 53.0785424,41.1959221 53.0785424,26.5392712 C53.0785424,11.8826203 41.1959221,0 26.5392712,0 Z M42.5034006,34.5207446 C42.5034006,38.9623869 38.8908333,42.5749542 34.449191,42.5749542 L18.6293514,42.5749542 C14.1883004,42.5749542 10.5751418,38.9623869 10.5751418,34.5207446 L10.5751418,18.7009049 C10.5751418,14.259854 14.1883004,10.6466953 18.6293514,10.6466953 L34.449191,10.6466953 C38.8908333,10.6466953 42.5034006,14.259854 42.5034006,18.7009049 L42.5034006,34.5207446 Z" id="Shape" fill="#B8B8B8" fill-rule="nonzero"></path>
                    </g>
                </g>
            </g>
        </g>
    </g>
</svg>