<?xml version="1.0" encoding="UTF-8"?>
<svg width="54px" height="53px" viewBox="0 0 54 53" version="1.1" xmlns="http://www.w3.org/2000/svg" xmlns:xlink="http://www.w3.org/1999/xlink">
    <!-- Generator: Sketch 47.1 (45422) - http://www.bohemiancoding.com/sketch -->
    <title>linkedin</title>
    <desc>Created with Sketch.</desc>
    <defs></defs>
    <g id="Page-1" stroke="none" stroke-width="1" fill="none" fill-rule="evenodd">
        <g id="Abtitu-Web2" transform="translate(-1308.000000, -5223.000000)" fill-rule="nonzero">
            <g id="Group-43" transform="translate(379.000000, 5042.000000)">
                <g id="social-media-logo" transform="translate(780.000000, 181.000000)">
                    <g id="linkedin" transform="translate(149.742268, 0.000000)">
                        <ellipse id="Oval" fill="#B8B8B8" cx="26.6108247" cy="26.0786082" rx="26.6108247" ry="26.0786082"></ellipse>
                        <path d="M42.5773196,28.6750803 L42.5773196,39.3840206 L36.1879307,39.3840206 L36.1879307,29.3927757 C36.1879307,26.8840832 35.2654267,25.170875 32.952019,25.170875 C31.1865864,25.170875 30.1378099,26.3242809 29.6746518,27.4411074 C29.5064473,27.8402386 29.4630858,28.3944846 29.4630858,28.954287 L29.4630858,39.3835576 L23.0732205,39.3835576 C23.0732205,39.3835576 23.1589905,22.4616909 23.0732205,20.7100513 L29.4635623,20.7100513 L29.4635623,23.3562634 C29.4506968,23.3770998 29.4325898,23.397473 29.4211538,23.4173833 L29.4635623,23.4173833 L29.4635623,23.3562634 C30.3126854,22.0866373 31.8270025,20.2715626 35.2220652,20.2715626 C39.4257484,20.2715626 42.5773196,22.9404632 42.5773196,28.6750803 L42.5773196,28.6750803 Z M16.3888781,11.7087629 C14.2031725,11.7087629 12.7731959,13.1029439 12.7731959,14.9346876 C12.7731959,16.7275368 14.161717,18.1620014 16.3050141,18.1620014 L16.3464696,18.1620014 C18.5750602,18.1620014 19.9607223,16.7275368 19.9607223,14.9346876 C19.9183138,13.1029439 18.5750602,11.7087629 16.3888781,11.7087629 L16.3888781,11.7087629 Z M13.1529664,39.3840206 L19.5404493,39.3840206 L19.5404493,20.7100513 L13.1529664,20.7100513 L13.1529664,39.3840206 Z" id="Shape" fill="#F1F2F2"></path>
                    </g>
                </g>
            </g>
        </g>
    </g>
</svg>