<?xml version="1.0" encoding="UTF-8"?>
<svg width="56px" height="56px" viewBox="0 0 56 56" version="1.1" xmlns="http://www.w3.org/2000/svg" xmlns:xlink="http://www.w3.org/1999/xlink">
    <!-- Generator: Sketch 47.1 (45422) - http://www.bohemiancoding.com/sketch -->
    <title>youtube-logotype</title>
    <desc>Created with Sketch.</desc>
    <defs></defs>
    <g id="Page-1" stroke="none" stroke-width="1" fill="none" fill-rule="evenodd">
        <g id="Abtitu-Web2" transform="translate(-1453.000000, -5223.000000)">
            <g id="Group-43" transform="translate(379.000000, 5042.000000)">
                <g id="social-media-logo" transform="translate(780.000000, 181.000000)">
                    <g id="youtube-logotype" transform="translate(294.974227, 0.000000)">
                        <circle id="Oval-9" fill="#FFFFFF" cx="28.4149485" cy="27.5128866" r="23.0025773"></circle>
                        <polygon id="Shape" fill="#B8B8B8" fill-rule="nonzero" points="14.2308034 29.382108 16.4708832 29.382108 16.4708832 40.7949698 18.5901431 40.7949698 18.5901431 29.382108 20.871845 29.382108 20.871845 27.5128866 14.2308034 27.5128866"></polygon>
                        <path d="M32.4070191,30.9753692 C31.6934182,30.9753692 31.0275084,31.3573964 30.4016357,32.1133718 L30.4016357,27.5128866 L28.4616068,27.5128866 L28.4616068,41.5988428 L30.4016357,41.5988428 L30.4016357,40.5820271 C31.0510596,41.3674336 31.7163806,41.74369 32.4070191,41.74369 C33.1789091,41.74369 33.6982128,41.3455045 33.9572758,40.5641376 C34.0873961,40.1192086 34.1539282,39.4203642 34.1539282,38.4491378 L34.1539282,34.2699214 C34.1539282,33.2761889 34.0873961,32.5825382 33.9572758,32.1606924 C33.6988015,31.3735547 33.1783204,30.9753692 32.4070191,30.9753692 Z M32.2127218,38.5980246 C32.2127218,39.5467448 31.92893,40.01418 31.3684118,40.01418 C31.049882,40.01418 30.7254645,39.8647161 30.4010469,39.5461677 L30.4010469,33.1498082 C30.7254645,32.8352994 31.049882,32.6864127 31.3684118,32.6864127 C31.9283412,32.6864127 32.2127218,33.1723144 32.2127218,34.1187263 L32.2127218,38.5980246 Z" id="Shape" fill="#B8B8B8" fill-rule="nonzero"></path>
                        <path d="M24.5836541,39.1746124 C24.1446746,39.7592913 23.7297158,40.0473857 23.3321721,40.0473857 C23.0679437,40.0473857 22.9172134,39.9007914 22.8691718,39.610999 C22.8511562,39.551003 22.8511562,39.3234706 22.8511562,38.886518 L22.8511562,31.3077675 L20.871845,31.3077675 L20.871845,39.4462928 C20.871845,40.1736038 20.9385026,40.6648925 21.0465961,40.9773249 C21.2453679,41.4991777 21.684948,41.74369 22.3214983,41.74369 C23.0499281,41.74369 23.796974,41.3293774 24.5836541,40.4792443 L24.5836541,41.6021898 L26.5641664,41.6021898 L26.5641664,31.3077675 L24.5836541,31.3077675 L24.5836541,39.1746124 L24.5836541,39.1746124 Z" id="Shape" fill="#B8B8B8" fill-rule="nonzero"></path>
                        <path d="M26.5647634,21.8205652 C27.2054033,21.8205652 27.5128866,21.3171446 27.5128866,20.3114863 L27.5128866,15.7381076 C27.5128866,14.7318578 27.2054033,14.2308034 26.5647634,14.2308034 C25.9235265,14.2308034 25.6154461,14.7324494 25.6154461,15.7381076 L25.6154461,20.3114863 C25.6154461,21.3177361 25.9235265,21.8205652 26.5647634,21.8205652 Z" id="Shape" fill="#B8B8B8" fill-rule="nonzero"></path>
                        <path d="M27.5128866,0 C12.3178923,0 0,12.3178923 0,27.5128866 C0,42.7078809 12.3178923,55.0257732 27.5128866,55.0257732 C42.7078809,55.0257732 55.0257732,42.7078809 55.0257732,27.5128866 C55.0257732,12.3178923 42.7078809,0 27.5128866,0 Z M30.5729388,12.8684315 L32.4424078,12.8684315 L32.4424078,20.4859124 C32.4424078,20.9255557 32.4424078,21.1535397 32.4649247,21.2148984 C32.5060181,21.5053669 32.6535041,21.6539787 32.904568,21.6539787 C33.279475,21.6539787 33.6729586,21.3635102 34.0889591,20.7763809 L34.0889591,12.8684315 L35.9634943,12.8684315 L35.9634943,23.2144027 L34.0889591,23.2144027 L34.0889591,22.086304 C33.3425225,22.9419477 32.6309872,23.3568223 31.9470351,23.3568223 C31.3435811,23.3568223 30.9270177,23.1119506 30.7390012,22.5884317 C30.6354233,22.2748833 30.5729388,21.7800736 30.5729388,21.0499618 L30.5729388,12.8684315 L30.5729388,12.8684315 Z M23.4924869,16.2420321 C23.4924869,15.1358874 23.6805033,14.3275292 24.0790532,13.8045733 C24.5975057,13.0969784 25.3276175,12.7434624 26.2620706,12.7434624 C27.201027,12.7434624 27.9305758,13.0969784 28.4490284,13.8045733 C28.841949,14.3269663 29.0299655,15.1358874 29.0299655,16.2420321 L29.0299655,19.8650078 C29.0299655,20.9649603 28.841949,21.7806365 28.4490284,22.2979632 C27.9305758,23.0038693 27.201027,23.3568223 26.2620706,23.3568223 C25.3276175,23.3568223 24.5975057,23.0038693 24.0790532,22.2979632 C23.6805033,21.7806365 23.4924869,20.9643974 23.4924869,19.8650078 L23.4924869,16.2420321 Z M18.4790901,9.33102012 L19.9550755,14.7829343 L21.3730799,9.33102012 L23.4755992,9.33102012 L20.97453,17.5919226 L20.97453,23.2149656 L18.8962164,23.2149656 L18.8962164,17.5919226 C18.707637,16.595548 18.2916366,15.1358874 17.6245722,13.1994305 C17.1866177,11.9108986 16.7300867,10.6184262 16.2921323,9.33102012 L18.4790901,9.33102012 Z M42.3239671,42.2536017 C41.9479342,43.8855169 40.6132425,45.0901732 39.0060959,45.2697458 C35.1990442,45.6947531 31.3480845,45.6970048 27.5111978,45.6947531 C23.6759999,45.6970048 19.8227885,45.6947531 16.0168627,45.2697458 C14.409716,45.0901732 13.0744615,43.8860798 12.6995544,42.2536017 C12.1642141,39.9292905 12.1642141,37.3910684 12.1642141,34.9975176 C12.1642141,32.6039668 12.1709692,30.0663076 12.7057466,27.7414335 C13.0812165,26.1089554 14.4153453,24.904299 16.0224919,24.7252894 C19.8289807,24.3002821 23.6816292,24.2980304 27.5179529,24.3002821 C31.3531508,24.2980304 35.2057993,24.3002821 39.0122881,24.7252894 C40.6194347,24.904862 41.9546893,26.1089554 42.3312851,27.7414335 C42.8649366,30.0663076 42.861559,32.6039668 42.861559,34.9975176 C42.861559,37.3910684 42.8593074,39.9292905 42.3239671,42.2536017 Z" id="Shape" fill="#B8B8B8" fill-rule="nonzero"></path>
                        <path d="M37.9658209,31.3077675 C36.9935533,31.3077675 36.2386907,31.6539723 35.6896997,32.3502971 C35.2866065,32.8648503 35.1026484,33.6601706 35.1026484,34.7468847 L35.1026484,38.3101658 C35.1026484,39.3912869 35.30852,40.1922002 35.7133432,40.7017197 C36.2617575,41.3963666 37.0189268,41.74369 38.0131079,41.74369 C39.0055591,41.74369 39.7846418,41.3795877 40.310566,40.6407563 C40.5412345,40.3141269 40.691169,39.9444316 40.7546028,39.5361448 C40.7724796,39.3515768 40.7949698,38.9427307 40.7949698,38.348198 L40.7949698,38.0802947 L38.8567779,38.0802947 C38.8567779,38.8185668 38.831981,39.2285315 38.8152576,39.3286456 C38.7068434,39.8213863 38.4335012,40.0674769 37.9658209,40.0674769 C37.3130291,40.0674769 36.9935533,39.5976675 36.9935533,38.6569299 L36.9935533,36.8526378 L40.7949698,36.8526378 L40.7949698,34.7457661 C40.7949698,33.659052 40.605245,32.8637317 40.2067652,32.3491785 C39.675651,31.6545316 38.9196351,31.3077675 37.9658209,31.3077675 Z M38.8954149,35.3190455 L36.9947066,35.3190455 L36.9947066,34.3777487 C36.9947066,33.4370111 37.3136058,32.9666424 37.9485208,32.9666424 C38.5770924,32.9666424 38.8954149,33.4375704 38.8954149,34.3777487 L38.8954149,35.3190455 L38.8954149,35.3190455 Z" id="Shape" fill="#B8B8B8" fill-rule="nonzero"></path>
                    </g>
                </g>
            </g>
        </g>
    </g>
</svg>