<?xml version="1.0" encoding="UTF-8"?>
<svg width="54px" height="53px" viewBox="0 0 54 53" version="1.1" xmlns="http://www.w3.org/2000/svg" xmlns:xlink="http://www.w3.org/1999/xlink">
    <!-- Generator: Sketch 47.1 (45422) - http://www.bohemiancoding.com/sketch -->
    <title>twitter (3)</title>
    <desc>Created with Sketch.</desc>
    <defs></defs>
    <g id="Page-1" stroke="none" stroke-width="1" fill="none" fill-rule="evenodd">
        <g id="Abtitu-Web2" transform="translate(-1383.000000, -5223.000000)" fill-rule="nonzero">
            <g id="Group-43" transform="translate(379.000000, 5042.000000)">
                <g id="social-media-logo" transform="translate(780.000000, 181.000000)">
                    <g id="twitter-(3)" transform="translate(224.613402, 0.000000)">
                        <circle id="Oval" fill="#B8B8B8" cx="26.4219585" cy="26.4214875" r="26.4214875"></circle>
                        <path d="M42.6060499,18.9883542 C41.4737946,19.4904274 40.2558195,19.8300098 38.9784999,19.981668 C40.2826658,19.2002988 41.2835154,17.9639552 41.7559164,16.4883496 C40.5355864,17.2122582 39.1833797,17.7374099 37.7454532,18.0204737 C36.5934164,16.7935499 34.9520231,16.0267813 33.1344802,16.0267813 C29.6472847,16.0267813 26.8190015,18.8550645 26.8190015,22.3422601 C26.8190015,22.8372685 26.875049,23.3190893 26.9833763,23.7815995 C21.7346855,23.5183172 17.0808526,21.004183 13.9657376,17.182115 C13.4222174,18.1146713 13.1104233,19.2002988 13.1104233,20.3575164 C13.1104233,22.5480818 14.226194,24.4819588 15.919867,25.614214 C14.8851063,25.5817159 13.910632,25.2977101 13.0595566,24.8234251 C13.0590856,24.8502714 13.0590856,24.8771177 13.0590856,24.9034931 C13.0590856,27.9635024 15.2369344,30.5157867 18.1255041,31.0955729 C17.5961135,31.2406373 17.0370507,31.3174083 16.4619743,31.3174083 C16.0540986,31.3174083 15.6589396,31.2783163 15.2736714,31.2048422 C16.077177,33.7133245 18.4090389,35.5393452 21.1732677,35.5906829 C19.0114326,37.2848269 16.2886507,38.2941543 13.3289618,38.2941543 C12.8202947,38.2941543 12.3163375,38.264482 11.823213,38.2056085 C14.6166431,39.998189 17.9371088,41.0433115 21.5034303,41.0433115 C33.1198796,41.0433115 39.4725664,31.4200837 39.4725664,23.0737045 C39.4725664,22.8000604 39.4664435,22.5273584 39.4541978,22.2570112 C40.6891285,21.3668438 41.7596843,20.254841 42.6060499,18.9883542 L42.6060499,18.9883542 Z" id="Shape" fill="#F1F2F2"></path>
                    </g>
                </g>
            </g>
        </g>
    </g>
</svg>