<?xml version="1.0" standalone="no"?>
<!DOCTYPE svg PUBLIC "-//W3C//DTD SVG 20010904//EN"
 "http://www.w3.org/TR/2001/REC-SVG-20010904/DTD/svg10.dtd">
<svg version="1.0" xmlns="http://www.w3.org/2000/svg"
 width="1698.000000pt" height="1698.000000pt" viewBox="0 0 1698.000000 1698.000000"
 preserveAspectRatio="xMidYMid meet">
<metadata>
Created by potrace 1.11, written by Peter Selinger 2001-2013
</metadata>
<g transform="translate(0.000000,1698.000000) scale(0.100000,-0.100000)"
fill="#000000" stroke="none">
<path d="M8447 14544 c-1 -1 -45 -5 -97 -8 -52 -3 -106 -8 -120 -11 -39 -8
-72 -14 -115 -21 -113 -17 -312 -85 -470 -158 -241 -113 -535 -348 -686 -550
-30 -39 -56 -73 -59 -76 -8 -7 -95 -142 -103 -160 -4 -8 -19 -35 -33 -60 -34
-61 -107 -230 -133 -310 -22 -71 -56 -211 -65 -275 -4 -22 -10 -65 -15 -95
-10 -59 -7 -439 3 -480 3 -14 10 -50 16 -80 9 -53 26 -129 49 -216 34 -132
151 -377 247 -516 l53 -78 -1185 0 -1184 0 0 -484 0 -484 23 -3 c12 -2 358 -4
770 -4 415 1 747 -3 747 -8 0 -4 -20 -45 -44 -90 -42 -80 -99 -188 -246 -472
-40 -77 -96 -185 -125 -240 -69 -131 -146 -280 -229 -437 -141 -272 -196 -377
-251 -483 -32 -60 -85 -162 -117 -225 -130 -249 -204 -391 -360 -690 -31 -58
-86 -163 -123 -235 -37 -71 -91 -175 -120 -230 -29 -55 -85 -163 -125 -240
-40 -77 -96 -185 -125 -240 -57 -108 -140 -267 -242 -465 -36 -69 -91 -174
-123 -235 -32 -60 -85 -163 -119 -227 -33 -65 -88 -170 -121 -233 -33 -63 -88
-168 -121 -232 -34 -65 -87 -167 -119 -228 -31 -60 -88 -168 -125 -240 -37
-71 -91 -175 -120 -230 -29 -55 -85 -163 -125 -240 -40 -77 -92 -176 -115
-220 -23 -44 -75 -143 -115 -220 -40 -77 -96 -185 -125 -240 -29 -55 -83 -158
-120 -229 -37 -70 -63 -132 -58 -136 4 -4 112 -61 238 -125 127 -65 234 -121
239 -126 9 -8 11 -113 16 -707 1 -149 4 -272 7 -272 4 0 55 38 103 77 8 7 92
72 185 143 216 167 216 166 305 237 41 33 95 73 118 91 l44 31 163 -85 c89
-46 169 -82 177 -79 7 3 80 -29 162 -70 82 -42 152 -73 156 -68 8 9 64 114
180 338 39 76 91 175 115 220 23 44 77 148 120 230 43 83 101 195 130 250 29
55 87 168 130 250 43 83 97 186 120 230 23 44 79 152 125 240 45 88 102 196
125 240 40 76 95 181 243 465 35 69 88 170 117 225 29 55 82 156 118 225 35
69 91 177 124 240 33 63 93 178 133 255 40 77 92 176 115 220 23 44 77 148
120 230 43 83 99 191 125 240 49 92 119 228 242 465 39 74 96 185 128 245 101
194 176 336 255 490 43 83 96 184 118 225 21 41 69 131 104 200 128 247 206
396 253 485 26 50 81 155 123 235 41 80 96 186 122 235 26 50 79 151 117 225
39 74 92 176 118 225 26 50 84 160 128 245 44 85 100 193 124 240 25 47 69
132 99 190 50 97 65 119 80 120 3 0 30 -46 59 -102 29 -57 74 -143 100 -193
26 -49 80 -153 120 -230 40 -77 94 -180 120 -230 26 -49 78 -148 115 -220 37
-71 93 -179 125 -240 32 -60 95 -182 140 -270 45 -88 95 -182 110 -210 15 -27
65 -122 110 -210 137 -265 210 -405 260 -500 53 -101 144 -275 245 -470 125
-241 207 -400 250 -480 23 -44 72 -137 109 -207 165 -319 202 -390 259 -498
33 -63 83 -160 112 -215 29 -55 85 -163 125 -240 114 -220 199 -383 245 -470
23 -44 82 -156 130 -250 48 -93 107 -206 130 -250 24 -44 73 -138 110 -210 65
-124 115 -221 248 -475 33 -63 87 -167 119 -230 33 -63 87 -167 121 -230 86
-166 164 -315 247 -475 40 -77 94 -180 120 -230 46 -86 103 -197 239 -460 35
-66 66 -124 70 -128 5 -5 151 65 326 154 301 153 320 161 342 147 13 -8 94
-69 181 -136 439 -341 548 -424 563 -432 14 -8 16 21 19 308 4 582 6 671 10
675 3 3 100 53 215 112 116 59 223 114 238 122 l28 14 -72 137 c-40 75 -93
178 -119 227 -51 97 -140 268 -252 485 -39 74 -87 167 -108 205 -20 39 -69
131 -107 205 -39 74 -101 194 -138 265 -83 159 -172 331 -235 450 -45 86 -107
204 -255 490 -37 72 -91 175 -120 230 -29 55 -83 159 -120 230 -37 72 -89 171
-115 220 -26 50 -80 153 -120 230 -72 138 -132 253 -235 450 -29 55 -85 163
-125 240 -40 77 -99 192 -132 255 -33 63 -90 171 -126 240 -35 69 -84 161
-107 205 -61 115 -99 189 -100 195 0 3 -3 10 -7 15 -15 24 -61 112 -148 280
-51 99 -105 203 -120 230 -15 28 -65 122 -110 210 -45 88 -102 196 -125 240
-23 44 -75 143 -115 220 -168 325 -291 559 -371 711 l-48 90 640 0 c352 -1
645 1 652 4 10 4 12 115 12 488 l0 482 -1082 0 c-596 0 -1083 2 -1083 5 0 3
15 26 34 52 130 183 266 499 300 698 3 17 10 53 15 80 13 69 25 224 25 320 -3
645 -330 1247 -874 1607 -327 216 -685 325 -1093 332 -38 1 -69 1 -70 0z m198
-890 c437 -47 805 -370 915 -802 25 -100 31 -146 30 -262 0 -102 -2 -115 -26
-230 -64 -296 -284 -574 -562 -710 -125 -61 -198 -86 -282 -97 -19 -3 -54 -8
-77 -13 -67 -12 -261 -4 -348 14 -334 71 -610 283 -756 581 -119 241 -140 529
-58 785 127 396 500 698 909 736 36 4 66 7 68 9 4 3 121 -3 187 -11z"/>
</g>
</svg>
