<?xml version="1.0" encoding="UTF-8"?>
<svg width="24px" height="30px" viewBox="0 0 24 30" version="1.1" xmlns="http://www.w3.org/2000/svg" xmlns:xlink="http://www.w3.org/1999/xlink">
    <!-- Generator: Sketch 49.1 (51147) - http://www.bohemiancoding.com/sketch -->
    <title>android</title>
    <desc>Created with Sketch.</desc>
    <defs></defs>
    <g id="Page-1" stroke="none" stroke-width="1" fill="none" fill-rule="evenodd">
        <g id="Style-Guide" transform="translate(-760.000000, -530.000000)" fill-rule="nonzero">
            <g id="Icons" transform="translate(579.000000, 41.000000)">
                <g id="Other-Icons" transform="translate(1.000000, 464.000000)">
                    <g id="Icons" transform="translate(0.000000, 25.000000)">
                        <g id="android" transform="translate(180.000000, 0.000000)">
                            <path d="M1.63043478,19.5652174 C0.729782609,19.5652174 0,18.8354348 0,17.9347826 L0,10.7608696 C0,9.86021739 0.729782609,9.13043478 1.63043478,9.13043478 C2.53108696,9.13043478 3.26086957,9.86021739 3.26086957,10.7608696 L3.26086957,17.9347826 C3.26086957,18.8354348 2.53108696,19.5652174 1.63043478,19.5652174 Z" id="Shape" fill="#72C472"></path>
                            <path d="M21.8478261,19.5652174 C20.9471739,19.5652174 20.2173913,18.8354348 20.2173913,17.9347826 L20.2173913,10.7608696 C20.2173913,9.86021739 20.9471739,9.13043478 21.8478261,9.13043478 C22.7484783,9.13043478 23.4782609,9.86021739 23.4782609,10.7608696 L23.4782609,17.9347826 C23.4782609,18.8354348 22.7484783,19.5652174 21.8478261,19.5652174 Z" id="Shape" fill="#72C472"></path>
                            <path d="M3.91304348,9.13043478 L3.91304348,22.826087 C3.91304348,23.5467391 4.49673913,24.1304348 5.2173913,24.1304348 L6.52173913,24.1304348 L6.52173913,28.3695652 C6.52173913,29.2702174 7.25152174,30 8.15217391,30 C9.05282609,30 9.7826087,29.2702174 9.7826087,28.3695652 L9.7826087,24.1304348 L13.6956522,24.1304348 L13.6956522,28.3695652 C13.6956522,29.2702174 14.4254348,30 15.326087,30 C16.2267391,30 16.9565217,29.2702174 16.9565217,28.3695652 L16.9565217,24.1304348 L18.2608696,24.1304348 C18.9815217,24.1304348 19.5652174,23.5467391 19.5652174,22.826087 L19.5652174,9.13043478 L3.91304348,9.13043478 Z" id="Shape" fill="#72C472"></path>
                            <path d="M15.5634783,2.31130435 L16.8945652,0.577173913 C17.0041304,0.434347826 16.9773913,0.229565217 16.8345652,0.12 C16.6917391,0.00913043478 16.4869565,0.037826087 16.3773913,0.18 L14.9719565,2.01065217 C13.9858696,1.56195652 12.8941304,1.30434783 11.7391304,1.30434783 C10.5841304,1.30434783 9.4923913,1.56195652 8.50630435,2.01130435 L7.10086957,0.180652174 C6.99195652,0.0384782609 6.78782609,0.0117391304 6.64369565,0.120652174 C6.50086957,0.230217391 6.47413043,0.435 6.58369565,0.577826087 L7.91478261,2.31195652 C5.71108696,3.5523913 4.16543478,5.82456522 3.94565217,8.47826087 L19.5326087,8.47826087 C19.3128261,5.82456522 17.7671739,3.5523913 15.5634783,2.31130435 Z" id="Shape" fill="#72C472"></path>
                            <circle id="Oval" fill="#FFFFFF" cx="8.15217391" cy="4.89130435" r="1"></circle>
                            <circle id="Oval" fill="#FFFFFF" cx="15.326087" cy="4.89130435" r="1"></circle>
                        </g>
                    </g>
                </g>
            </g>
        </g>
    </g>
</svg>