<?xml version="1.0" encoding="UTF-8"?>
<svg width="25px" height="30px" viewBox="0 0 25 30" version="1.1" xmlns="http://www.w3.org/2000/svg" xmlns:xlink="http://www.w3.org/1999/xlink">
    <!-- Generator: Sketch 49.1 (51147) - http://www.bohemiancoding.com/sketch -->
    <title>apple</title>
    <desc>Created with Sketch.</desc>
    <defs></defs>
    <g id="Page-1" stroke="none" stroke-width="1" fill="none" fill-rule="evenodd">
        <g id="Style-Guide" transform="translate(-580.000000, -530.000000)" fill="#B3B3B3" fill-rule="nonzero">
            <g id="Icons" transform="translate(579.000000, 41.000000)">
                <g id="Other-Icons" transform="translate(1.000000, 464.000000)">
                    <g id="Icons" transform="translate(0.000000, 25.000000)">
                        <g id="apple">
                            <path d="M24.7813043,22.3219565 C24.1036957,23.8226087 23.7802174,24.4923913 22.9076087,25.8182609 C21.6919565,27.6697826 19.9767391,29.9758696 17.8513043,29.9954348 C15.9632609,30.0130435 15.4780435,28.7667391 12.915,28.7817391 C10.3519565,28.7967391 9.81782609,30.0176087 7.92978261,30 C5.80434783,29.981087 4.18043478,27.8986957 2.96347826,26.0458696 C-0.43826087,20.8676087 -0.793695652,14.7913043 1.30434783,11.561087 C2.79521739,9.26413043 5.14826087,7.92195652 7.35978261,7.92195652 C9.61173913,7.92195652 11.0276087,9.15652174 12.8902174,9.15652174 C14.6967391,9.15652174 15.7969565,7.92 18.401087,7.92 C20.3693478,7.92 22.455,8.99152174 23.9413043,10.8430435 C19.0715217,13.511087 19.8632609,20.4626087 24.7813043,22.3219565 Z" id="Shape"></path>
                            <path d="M16.7002174,4.68 C17.6465217,3.46565217 18.363913,1.7523913 18.1030435,0 C16.5573913,0.105652174 14.7508696,1.08913043 13.6956522,2.37065217 C12.7376087,3.53347826 11.9465217,5.25847826 12.2543478,6.93521739 C13.9402174,6.98804348 15.686087,5.98043478 16.7002174,4.68 Z" id="Shape"></path>
                        </g>
                    </g>
                </g>
            </g>
        </g>
    </g>
</svg>