<?xml version="1.0" encoding="UTF-8"?>
<svg width="22px" height="24px" viewBox="0 0 22 24" version="1.1" xmlns="http://www.w3.org/2000/svg" xmlns:xlink="http://www.w3.org/1999/xlink">
    <!-- Generator: Sketch 49.1 (51147) - http://www.bohemiancoding.com/sketch -->
    <title>bag-17</title>
    <desc>Created with Sketch.</desc>
    <defs></defs>
    <g id="Page-1" stroke="none" stroke-width="1" fill="none" fill-rule="evenodd">
        <g id="Style-Guide" transform="translate(-760.000000, -116.000000)" fill="#1C2D5B" fill-rule="nonzero">
            <g id="Icons" transform="translate(579.000000, 41.000000)">
                <g id="App-Header-Icons" transform="translate(1.000000, 44.000000)">
                    <g id="Icons" transform="translate(0.000000, 31.000000)">
                        <g id="bag-17" transform="translate(180.000000, 0.000000)">
                            <path d="M19,0 L3,0 C1.3,0 0,1.3 0,3 L0,23 C0,23.6 0.4,24 1,24 L21,24 C21.6,24 22,23.6 22,23 L22,3 C22,1.3 20.7,0 19,0 Z M11,16 C7.7,16 5,13.3 5,10 C5,9.4 5.4,9 6,9 C6.6,9 7,9.4 7,10 C7,12.2 8.8,14 11,14 C13.2,14 15,12.2 15,10 C15,9.4 15.4,9 16,9 C16.6,9 17,9.4 17,10 C17,13.3 14.3,16 11,16 Z M19,4 L3,4 C2.4,4 2,3.6 2,3 C2,2.4 2.4,2 3,2 L19,2 C19.6,2 20,2.4 20,3 C20,3.6 19.6,4 19,4 Z" id="Shape"></path>
                        </g>
                    </g>
                </g>
            </g>
        </g>
    </g>
</svg>