<?xml version="1.0" encoding="UTF-8"?>
<svg width="18px" height="18px" viewBox="0 0 18 18" version="1.1" xmlns="http://www.w3.org/2000/svg" xmlns:xlink="http://www.w3.org/1999/xlink">
    <!-- Generator: Sketch 49.1 (51147) - http://www.bohemiancoding.com/sketch -->
    <title>circle-remove</title>
    <desc>Created with Sketch.</desc>
    <defs></defs>
    <g id="Page-1" stroke="none" stroke-width="1" fill="none" fill-rule="evenodd">
        <g id="Style-Guide" transform="translate(-580.000000, -292.000000)" fill="#D15555" fill-rule="nonzero">
            <g id="Icons" transform="translate(579.000000, 41.000000)">
                <g id="Form-Elements-Icons" transform="translate(0.000000, 174.000000)">
                    <g id="Icons" transform="translate(0.000000, 47.000000)">
                        <g id="circle-remove" transform="translate(1.000000, 30.000000)">
                            <path d="M9,0 C4.05,0 0,4.05 0,9 C0,13.95 4.05,18 9,18 C13.95,18 18,13.95 18,9 C18,4.05 13.95,0 9,0 Z M12.525,11.475 C12.825,11.775 12.825,12.225 12.525,12.525 C12.375,12.675 12.225,12.75 12,12.75 C11.775,12.75 11.625,12.675 11.475,12.525 L9,10.05 L6.525,12.525 C6.375,12.675 6.225,12.75 6,12.75 C5.775,12.75 5.625,12.675 5.475,12.525 C5.175,12.225 5.175,11.775 5.475,11.475 L7.95,9 L5.475,6.525 C5.175,6.225 5.175,5.775 5.475,5.475 C5.775,5.175 6.225,5.175 6.525,5.475 L9,7.95 L11.475,5.475 C11.775,5.175 12.225,5.175 12.525,5.475 C12.825,5.775 12.825,6.225 12.525,6.525 L10.05,9 L12.525,11.475 Z" id="Shape"></path>
                        </g>
                    </g>
                </g>
            </g>
        </g>
    </g>
</svg>