<?xml version="1.0" encoding="UTF-8"?>
<svg width="11px" height="20px" viewBox="0 0 11 20" version="1.1" xmlns="http://www.w3.org/2000/svg" xmlns:xlink="http://www.w3.org/1999/xlink">
    <!-- Generator: Sketch 48.2 (47327) - http://www.bohemiancoding.com/sketch -->
    <title>dollar-symbol</title>
    <desc>Created with Sketch.</desc>
    <defs></defs>
    <g id="Online-courses-page/Course-Details" stroke="none" stroke-width="1" fill="none" fill-rule="evenodd" transform="translate(-704.000000, -411.000000)">
        <g id="dollar-symbol" transform="translate(704.000000, 411.000000)" fill="#FFFFFF" fill-rule="nonzero">
            <path d="M10.8454427,12.1761005 C10.7434093,11.8490199 10.6196148,11.5643538 10.4742244,11.3226105 C10.3289166,11.0806326 10.1208032,10.8445966 9.84947109,10.6137208 C9.57846936,10.3829623 9.33467929,10.1971201 9.11851381,10.0558426 C8.9024722,9.91444772 8.60570404,9.75636072 8.22837449,9.58138608 C7.85137529,9.40645053 7.55266638,9.27627503 7.33278459,9.19066411 C7.11261375,9.10517047 6.79412581,8.98797343 6.37752723,8.83915116 C6.00816711,8.70530104 5.73316002,8.60295885 5.55221692,8.53232008 C5.37148027,8.46160311 5.13380147,8.36121552 4.83905664,8.23092274 C4.54443568,8.10082542 4.32434742,7.9854266 4.17891575,7.885039 C4.03352536,7.78465141 3.87834869,7.66190334 3.71326185,7.51683388 C3.54817501,7.37176443 3.43226737,7.21735204 3.36541505,7.05367492 C3.29872789,6.8899587 3.26528108,6.71134853 3.26528108,6.51788349 C3.26528108,6.01203635 3.50097785,5.5989539 3.97253655,5.27910527 C4.44413655,4.95925663 5.05332267,4.79925413 5.80001234,4.79925413 C6.12993827,4.79925413 6.4663058,4.8419814 6.80795875,4.92763141 C7.1496117,5.01328142 7.44241579,5.10975984 7.68608199,5.21773123 C7.92995464,5.32570263 8.1597466,5.44477607 8.37595337,5.57491248 C8.59211886,5.70516617 8.7453135,5.80367736 8.83578505,5.87064152 C8.92617402,5.93764476 8.98344651,5.98224844 9.00677669,6.00460892 C9.10909915,6.0790005 9.21493146,6.10499651 9.32497559,6.08275331 C9.44282397,6.07532588 9.53329552,6.01571097 9.59630766,5.90422132 L10.5513998,4.27472113 C10.6456703,4.12597705 10.6261803,3.98458222 10.4924757,3.85057572 C10.4452372,3.80593295 10.3865195,3.75390184 10.3152902,3.69432603 C10.2447628,3.63475021 10.0914443,3.5268961 9.85545848,3.37056822 C9.61972042,3.21435762 9.37019072,3.07483919 9.10707583,2.95205202 C8.84367189,2.82938214 8.5016886,2.70467948 8.08116725,2.57825678 C7.66089365,2.45163863 7.22653936,2.36614499 6.77843471,2.32154131 L6.77843471,0.357142159 C6.77843471,0.253040849 6.74312975,0.167429933 6.67260241,0.100426686 C6.60190989,0.0335798068 6.51147963,0 6.40127034,0 L4.80961519,0 C4.7074579,0 4.61905097,0.0352998434 4.54439439,0.106016806 C4.46973781,0.176733768 4.43240952,0.260390096 4.43240952,0.357142159 L4.43240952,2.3661059 C3.19842876,2.58924156 2.19634587,3.08777855 1.42611956,3.8615996 C0.655975828,4.63545973 0.27075944,5.53562528 0.27075944,6.56252626 C0.27075944,6.86755913 0.304288833,7.15773714 0.371099865,7.43290391 C0.437828312,7.70830524 0.520413023,7.95571687 0.61868883,8.17517792 C0.716882052,8.39479533 0.856450215,8.61050356 1.03718686,8.82261535 C1.2179235,9.03464897 1.38891514,9.21697285 1.54999662,9.36943065 C1.71116069,9.52184935 1.92142136,9.68001454 2.18069607,9.84365258 C2.44013594,10.007447 2.66216493,10.1396162 2.84690693,10.2400038 C3.03169023,10.3400786 3.27725587,10.4557902 3.58368644,10.585692 C3.89019959,10.7159848 4.13196634,10.8144569 4.3088215,10.8815774 C4.48567666,10.9484634 4.72731952,11.0415799 5.03395656,11.1603797 C5.4583181,11.3166294 5.77275939,11.4375793 5.97707396,11.5231902 C6.18155371,11.6088011 6.44082841,11.7278355 6.75539358,11.8803714 C7.0696697,12.0327511 7.29946166,12.1723086 7.44497592,12.2988486 C7.59036631,12.4253885 7.72196504,12.5816382 7.8399373,12.7675976 C7.95790956,12.9535571 8.01699893,13.1507358 8.01699893,13.359173 C8.01699893,13.9469955 7.77531477,14.4007725 7.29182257,14.7204647 C6.80853684,15.0405088 6.24836474,15.2004722 5.61184308,15.2004722 C5.32131006,15.2004722 5.03028154,15.1708798 4.73958335,15.1113821 C3.7178453,14.9176826 2.76295957,14.4526472 1.87484359,13.7160806 L1.85126565,13.6937592 C1.78049055,13.6121356 1.68613752,13.5785949 1.56837172,13.5935671 C1.44259521,13.6084219 1.35216495,13.6531038 1.29720482,13.7276517 L0.0828792215,15.2342475 C-0.0350517467,15.3830307 -0.027082322,15.5355276 0.106498449,15.6917772 C0.145850064,15.7364591 0.214601836,15.8035796 0.312795059,15.8927088 C0.411236035,15.9821898 0.593996001,16.1214737 0.861074959,16.3115768 C1.1282365,16.5014063 1.41905856,16.6797429 1.73349985,16.8473682 C2.04789985,17.01472 2.44670142,17.1801953 2.93015232,17.3439507 C3.41360322,17.5074323 3.91452079,17.6227139 4.43327666,17.6896389 L4.43327666,19.6427797 C4.43327666,19.739649 4.47064624,19.8232662 4.54526153,19.8940223 C4.6199594,19.9648174 4.70832504,20 4.81048233,20 L6.40213747,20 C6.51234677,20 6.60277703,19.9665766 6.67342825,19.8996906 C6.74407947,19.8328046 6.77926056,19.7471937 6.77926056,19.6428187 L6.77926056,17.689678 C8.02913888,17.4962521 9.04497212,16.9884113 9.82688417,16.1661946 C10.6088788,15.343978 11,14.3636744 11,13.2253619 C10.9995871,12.853404 10.948591,12.5036893 10.8454427,12.1761005 Z" id="Shape"></path>
        </g>
    </g>
</svg>