<?xml version="1.0" encoding="UTF-8"?>
<svg width="35px" height="35px" viewBox="0 0 35 35" version="1.1" xmlns="http://www.w3.org/2000/svg" xmlns:xlink="http://www.w3.org/1999/xlink">
    <!-- Generator: Sketch 48.2 (47327) - http://www.bohemiancoding.com/sketch -->
    <title>telephone-handle-silhouette</title>
    <desc>Created with Sketch.</desc>
    <defs></defs>
    <g id="Online-courses-page/Subscribe-Now" stroke="none" stroke-width="1" fill="none" fill-rule="evenodd" transform="translate(-1074.000000, -599.000000)">
        <g id="telephone-handle-silhouette" transform="translate(1074.000000, 599.000000)" fill="#2F2E2E" fill-rule="nonzero">
            <path d="M34.9255469,27.1185376 C34.826548,26.8202533 34.1966815,26.3808368 33.0363828,25.8013328 C32.7220591,25.6186707 32.2741695,25.3704487 31.6946297,25.055535 C31.1145674,24.7406212 30.5880534,24.450434 30.1160454,24.1852343 C29.6430796,23.9201217 29.1999789,23.6632803 28.7859597,23.4150582 C28.7197862,23.3653442 28.512646,23.2205553 28.1646261,22.9797338 C27.8162579,22.7396088 27.5224827,22.561387 27.2817334,22.4451553 C27.0415064,22.3296202 26.8051977,22.2714609 26.5731554,22.2714609 C26.2417658,22.2714609 25.8278337,22.507755 25.3308365,22.9797338 C24.8338393,23.452322 24.3779393,23.9656566 23.963833,24.5213048 C23.5496396,25.0766917 23.11037,25.5900263 22.6468078,26.0623534 C22.182549,26.5348546 21.8010941,26.7708875 21.5031396,26.7708875 C21.3535528,26.7708875 21.1670482,26.7291834 20.9435388,26.6469071 C20.7201165,26.5641084 20.5501552,26.4931505 20.4334811,26.4359488 C20.3178517,26.3775283 20.1194185,26.2619061 19.8374849,26.087341 C19.5550289,25.9132983 19.3979541,25.8179622 19.3648674,25.8013328 C17.0945097,24.5415909 15.1473568,23.0997963 13.5230606,21.4762972 C11.8992868,19.8518404 10.4572287,17.9049824 9.19775695,15.6345041 C9.1812136,15.6013323 9.08569749,15.4438319 8.91181812,15.1622641 C8.73767755,14.880435 8.62161285,14.68184 8.56362404,14.5655213 C8.50563523,14.4496379 8.43519537,14.2796873 8.35247859,14.0560176 C8.26976182,13.8323478 8.22822929,13.646029 8.22822929,13.4967127 C8.22822929,13.1986025 8.46445098,12.8172583 8.9368073,12.3532024 C9.40907654,11.8894077 9.92296538,11.4500782 10.4779514,11.0360847 C11.0333728,10.6220911 11.5467392,10.1662193 12.0191826,9.66925291 C12.4914518,9.1720253 12.7275864,8.75794467 12.7275864,8.42657569 C12.7275864,8.19472188 12.6695976,7.95834069 12.5537071,7.71812865 C12.4377294,7.47739422 12.2595836,7.18363727 12.0191826,6.83546476 C11.7786944,6.48746639 11.6337224,6.28051314 11.5839182,6.21390849 C11.3355937,5.79991493 11.0789976,5.35666755 10.8135203,4.88434051 C10.548043,4.41210053 10.2582731,3.88570618 9.94325276,3.30576693 C9.62849367,2.72608887 9.38008213,2.27848825 9.19758281,1.9636616 C8.61786883,0.803870159 8.17877337,0.173868592 7.88038349,0.0747887433 C7.7643188,0.0250746892 7.59017822,0 7.35839711,0 C6.91068169,0 6.3266142,0.0827116485 5.60575929,0.248657335 C4.88464316,0.414341827 4.31720609,0.588123354 3.90283859,0.770698435 C3.07419066,1.11852268 2.19591267,2.12934609 1.26774339,3.80282041 C0.422552108,5.36023721 0,6.90172115 0,8.42614036 C0,8.87321859 0.0289944059,9.3081948 0.0869832178,9.73115605 C0.14497203,10.153682 0.248585672,10.6301881 0.397911216,11.1605875 C0.54697555,11.6908127 0.667219617,12.0846942 0.758120998,12.3411874 C0.849109449,12.5978547 1.01898358,13.0576444 1.26765632,13.7207306 C1.51598079,14.3836427 1.66530633,14.7894522 1.71502346,14.9385944 C2.29499865,16.5627029 2.98276686,18.0125946 3.77815394,19.2887047 C5.08682037,21.4097796 6.87271905,23.6018124 9.13480513,25.8639325 C11.3969783,28.1258784 13.5887116,29.9115794 15.7100921,31.2206871 C16.9861071,32.0159379 18.4366111,32.7035764 20.060559,33.283951 C20.2097975,33.3334038 20.6156321,33.4823718 21.2783241,33.7315516 C21.9412772,33.9800348 22.4012696,34.1498984 22.6579528,34.2410553 C22.9147231,34.3322993 23.3087161,34.452623 23.8385388,34.6019393 C24.3694934,34.7512556 24.8455938,34.8548628 25.2681459,34.9132834 C25.6909592,34.970485 26.1260494,35 26.5732424,35 C28.097669,35 29.6393356,34.5772129 31.1971101,33.732161 C32.8705139,32.8043975 33.8811388,31.9259998 34.2291587,31.0967938 C34.4121805,30.6828873 34.5855374,30.1153112 34.7512322,29.3942398 C34.9174493,28.6735166 34.999992,28.0895724 34.999992,27.6419717 C35.0005144,27.4092473 34.9755252,27.2355528 34.9255469,27.1185376 Z" id="Shape"></path>
        </g>
    </g>
</svg>