<?xml version="1.0" encoding="UTF-8"?>
<svg width="16px" height="16px" viewBox="0 0 16 16" version="1.1" xmlns="http://www.w3.org/2000/svg" xmlns:xlink="http://www.w3.org/1999/xlink">
    <!-- Generator: Sketch 46.2 (44496) - http://www.bohemiancoding.com/sketch -->
    <title>Search theme</title>
    <desc>Created with Sketch.</desc>
    <defs></defs>
    <g id="Abtitu-Dashboard-New-Project-＆-Payment" stroke="none" stroke-width="1" fill="none" fill-rule="evenodd">
        <g id="Dashboard-New-project-_theme" transform="translate(-869.000000, -303.000000)" fill-rule="nonzero" fill="#D5D5D5">
            <g id="Group" transform="translate(851.000000, 294.000000)">
                <g id="Search-theme" transform="translate(18.000000, 9.000000)">
                    <path d="M7.22222222,14.2222222 C3.35622897,14.2222222 0.222222222,11.0882155 0.222222222,7.22222222 C0.222222222,3.35622897 3.35622897,0.222222222 7.22222222,0.222222222 C11.0882155,0.222222222 14.2222222,3.35622897 14.2222222,7.22222222 C14.2222222,11.0882155 11.0882155,14.2222222 7.22222222,14.2222222 Z M7.22222222,12.6666667 C10.2291059,12.6666667 12.6666667,10.2291059 12.6666667,7.22222222 C12.6666667,4.21533858 10.2291059,1.77777778 7.22222222,1.77777778 C4.21533858,1.77777778 1.77777778,4.21533858 1.77777778,7.22222222 C1.77777778,10.2291059 4.21533858,12.6666667 7.22222222,12.6666667 Z" id="Oval"></path>
                    <path d="M15.5499719,14.4500281 L12.1666386,11.0666947 C11.8628975,10.7629536 11.3704358,10.7629536 11.0666947,11.0666947 C10.7629536,11.3704358 10.7629536,11.8628975 11.0666947,12.1666386 L14.4500281,15.5499719 C14.7537692,15.8537131 15.2462308,15.8537131 15.5499719,15.5499719 C15.8537131,15.2462308 15.8537131,14.7537692 15.5499719,14.4500281 Z" id="Shape"></path>
                </g>
            </g>
        </g>
    </g>
</svg>