<?xml version="1.0" encoding="UTF-8"?>
<svg width="31px" height="31px" viewBox="0 0 31 31" version="1.1" xmlns="http://www.w3.org/2000/svg" xmlns:xlink="http://www.w3.org/1999/xlink">
    <!-- Generator: Sketch 48.2 (47327) - http://www.bohemiancoding.com/sketch -->
    <title>star</title>
    <desc>Created with Sketch.</desc>
    <defs></defs>
    <g id="Online-courses-page/Premium-Course" stroke="none" stroke-width="1" fill="none" fill-rule="evenodd" transform="translate(-355.000000, -234.000000)">
        <g id="star" transform="translate(355.000000, 234.000000)" fill="#FFFFFF" fill-rule="nonzero">
            <path d="M30.3272492,13.6354806 C30.9374343,13.0330368 31.1528303,12.1488655 30.8896375,11.3269509 C30.625824,10.5050364 29.9386675,9.9183139 29.0944643,9.79380045 L21.588505,8.68890079 C21.2688251,8.6417366 20.9925969,8.43861617 20.8498272,8.14494051 L17.4941196,1.25519621 C17.1173319,0.481074698 16.3525831,0 15.5003104,0 C14.6486583,0 13.8839096,0.481074698 13.5071219,1.25519621 L10.1507935,8.14556936 C10.0080239,8.43924503 9.7311749,8.64236546 9.41149502,8.68952964 L1.90553569,9.79442931 C1.06195326,9.9183139 0.37417597,10.5056652 0.110362481,11.3275798 C-0.152830272,12.1494943 0.0625656836,13.0336656 0.672750767,13.6361095 L6.10358423,18.9989919 C6.33511936,19.2278954 6.4412655,19.5574158 6.38664059,19.87939 L5.10543813,27.4520717 C4.99184315,28.1186589 5.16440821,28.7670092 5.59023422,29.278269 C6.25194052,30.0750293 7.40713324,30.3177677 8.33079082,29.8260024 L15.0434475,26.2503283 C15.3240209,26.1012894 15.6772206,26.1025471 15.9571733,26.2503283 L22.6704507,29.8260024 C22.9969586,30.0001955 23.3451924,30.0882353 23.7045995,30.0882353 C24.3607192,30.0882353 24.9826983,29.7926731 25.4103865,29.278269 C25.8368333,28.7670092 26.0087776,28.1174012 25.8951826,27.4520717 L24.6133594,19.87939 C24.5587345,19.556787 24.6648806,19.2278954 24.8964158,18.9989919 L30.3272492,13.6354806 Z" id="Shape"></path>
        </g>
    </g>
</svg>