<?xml version="1.0" encoding="UTF-8"?>
<svg width="11px" height="10px" viewBox="0 0 11 10" version="1.1" xmlns="http://www.w3.org/2000/svg" xmlns:xlink="http://www.w3.org/1999/xlink">
    <!-- Generator: Sketch 46.2 (44496) - http://www.bohemiancoding.com/sketch -->
    <title>check-circle</title>
    <desc>Created with Sketch.</desc>
    <defs></defs>
    <g id="Abtitu-Editor-2.2" stroke="none" stroke-width="1" fill="none" fill-rule="evenodd">
        <g id="Abtitu-Editor-2.2-properties_icons" transform="translate(-251.000000, -79.000000)" fill-rule="nonzero" fill="#E2344A">
            <g id="added_button" transform="translate(236.000000, 72.000000)">
                <g id="check-circle" transform="translate(15.000000, 6.000000)">
                    <path d="M9.14285714,5.31571429 L9.14285714,5.71428571 C9.14188051,7.42224807 8.01745631,8.92635139 6.37935029,9.41068819 C4.74124426,9.89502498 2.97968044,9.24421821 2.04993989,7.81119483 C1.12019934,6.37817145 1.24376168,4.50430142 2.35362012,3.2057685 C3.46347855,1.90723558 5.29524638,1.49337185 6.8555715,2.1886121 C7.07177399,2.2849463 7.32513504,2.18777385 7.42146924,1.97157136 C7.51780344,1.75536887 7.42063099,1.50200782 7.2044285,1.40567362 C5.29736446,0.555935535 3.05853712,1.06176898 1.70204348,2.64886477 C0.34554984,4.23596056 0.194529196,6.52624616 1.33087876,8.27771918 C2.46722832,10.0291922 4.62025077,10.8246227 6.62238035,10.2326555 C8.62450994,9.6406883 9.99880619,7.80233981 9.99999993,5.71453076 L10,5.31571429 C10,5.07902082 9.80812204,4.88714286 9.57142857,4.88714286 C9.33473511,4.88714286 9.14285714,5.07902082 9.14285714,5.31571429 Z" id="Shape"></path>
                    <path d="M5.28571429,5.96533704 L4.30304576,4.98266852 C4.13567821,4.81530097 3.86432179,4.81530097 3.69695424,4.98266852 C3.52958668,5.15003608 3.52958668,5.4213925 3.69695424,5.58876005 L4.98266852,6.87447433 C5.15003608,7.04184189 5.4213925,7.04184189 5.58876005,6.87447433 L10.3030458,2.16018862 C10.4704133,1.99282107 10.4704133,1.72146465 10.3030458,1.55409709 C10.1356782,1.38672954 9.86432179,1.38672954 9.69695424,1.55409709 L5.28571429,5.96533704 Z" id="Shape"></path>
                </g>
            </g>
        </g>
    </g>
</svg>