<?xml version="1.0" encoding="UTF-8"?>
<svg width="17px" height="17px" viewBox="0 0 17 17" version="1.1" xmlns="http://www.w3.org/2000/svg" xmlns:xlink="http://www.w3.org/1999/xlink">
    <!-- Generator: Sketch 48.2 (47327) - http://www.bohemiancoding.com/sketch -->
    <title>Time</title>
    <desc>Created with Sketch.</desc>
    <defs></defs>
    <g id="Online-courses-page/Premium-Course" stroke="none" stroke-width="1" fill="none" fill-rule="evenodd" transform="translate(-356.000000, -988.000000)">
        <g id="Group-10" transform="translate(354.000000, 625.000000)" fill="#000000" fill-rule="nonzero">
            <g id="Time" transform="translate(2.000000, 363.000000)">
                <path d="M14.5103965,2.48960352 C12.904959,0.884166016 10.7704297,0 8.5,0 C6.22957031,0 4.09504102,0.884199219 2.48960352,2.48960352 C0.884166016,4.09500781 0,6.22957031 0,8.5 C0,10.7704297 0.884166016,12.904959 2.48960352,14.5103965 C4.09500781,16.115834 6.22957031,17 8.5,17 C10.7704297,17 12.904959,16.115834 14.5103965,14.5103965 C16.115834,12.904959 17,10.7704297 17,8.5 C17,6.22957031 16.115834,4.09500781 14.5103965,2.48960352 Z M8.5,15.6265859 C4.57041016,15.6265859 1.37341406,12.4295898 1.37341406,8.5 C1.37341406,4.57041016 4.57041016,1.37341406 8.5,1.37341406 C12.4295898,1.37341406 15.6265859,4.57041016 15.6265859,8.5 C15.6265859,12.4295898 12.4295898,15.6265859 8.5,15.6265859 Z" id="Shape"></path>
                <path d="M11.1493892,10.2268391 L9.18948463,8.20435629 L9.18948463,4.04813965 C9.18948463,3.69019307 8.90830523,3.4 8.56140898,3.4 C8.21454311,3.4 7.93333333,3.69019307 7.93333333,4.04813965 L7.93333333,8.47283189 C7.93333333,8.64475405 7.9995057,8.80959375 8.11730405,8.93115519 L10.2611186,11.1434856 C10.3837455,11.2700612 10.5445149,11.3333333 10.7052539,11.3333333 C10.8659929,11.3333333 11.0267319,11.2700612 11.1494196,11.1434856 C11.394643,10.8903345 11.394643,10.4799589 11.1493892,10.2268391 Z" id="Shape"></path>
            </g>
        </g>
    </g>
</svg>