<?xml version="1.0" encoding="UTF-8"?>
<svg width="30px" height="30px" viewBox="0 0 30 30" version="1.1" xmlns="http://www.w3.org/2000/svg" xmlns:xlink="http://www.w3.org/1999/xlink">
    <!-- Generator: Sketch 48.2 (47327) - http://www.bohemiancoding.com/sketch -->
    <title>Oval 15</title>
    <desc>Created with Sketch.</desc>
    <defs></defs>
    <g id="Online-courses-page/Course-Details" stroke="none" stroke-width="1" fill="none" fill-rule="evenodd" transform="translate(-385.000000, -1272.000000)">
        <g id="Items" transform="translate(353.000000, 1252.000000)" stroke="#2F2E2E" stroke-width="2">
            <path d="M52.5667428,35.5067873 L45.5146336,30.3784578 C45.4399785,30.3243539 45.3431944,30.3187127 45.2634326,30.3625599 C45.1834276,30.40692 45.1333333,30.4941016 45.1333333,30.5894885 L45.1333333,40.8461476 C45.1333333,40.9415346 45.1834276,41.0289726 45.2634326,41.0733326 C45.2989363,41.0928203 45.3378445,41.1025641 45.3765095,41.1025641 C45.4249016,41.1025641 45.4730505,41.0871791 45.5146336,41.0571784 L52.5667428,35.9288488 C52.6326435,35.880899 52.6717949,35.8021791 52.6717949,35.7178181 C52.6717949,35.6334571 52.6324003,35.5547372 52.5667428,35.5067873 Z M47,49 C54.7319865,49 61,42.7319865 61,35 C61,27.2680135 54.7319865,21 47,21 C39.2680135,21 33,27.2680135 33,35 C33,42.7319865 39.2680135,49 47,49 Z" id="Oval-15"></path>
        </g>
    </g>
</svg>