<?xml version="1.0" encoding="UTF-8"?>
<svg width="37px" height="27px" viewBox="0 0 37 27" version="1.1" xmlns="http://www.w3.org/2000/svg" xmlns:xlink="http://www.w3.org/1999/xlink">
    <!-- Generator: Sketch 49.1 (51147) - http://www.bohemiancoding.com/sketch -->
    <title>visa</title>
    <desc>Created with Sketch.</desc>
    <defs></defs>
    <g id="Page-1" stroke="none" stroke-width="1" fill="none" fill-rule="evenodd">
        <g id="Style-Guide" transform="translate(-760.000000, -573.000000)" fill-rule="nonzero">
            <g id="Icons" transform="translate(579.000000, 41.000000)">
                <g id="Other-Icons" transform="translate(1.000000, 464.000000)">
                    <g id="Icons" transform="translate(0.000000, 25.000000)">
                        <g id="visa" transform="translate(180.000000, 43.000000)">
                            <rect id="Rectangle-path" fill="#E6E6E6" x="0" y="6" width="37" height="15"></rect>
                            <path d="M2.41304348,27 L34.5869565,27 C35.9197609,27 37,25.99275 37,24.75 L37,21 L0,21 L0,24.75 C0,25.99275 1.08023913,27 2.41304348,27 Z" id="Shape" fill="#E79800"></path>
                            <path d="M34.5869565,0 L2.41304348,0 C1.08023913,0 0,1.00725 0,2.25 L0,6 L37,6 L37,2.25 C37,1.00725 35.9197609,0 34.5869565,0 Z" id="Shape" fill="#1A1876"></path>
                            <polygon id="Shape" fill="#1A1876" points="15 18 16.8451202 18 18 10 16.1541726 10"></polygon>
                            <path d="M22.0293705,13.2469398 C21.3306091,12.8884168 20.9023113,12.6488619 20.9069084,12.2862924 C20.9069084,11.9641882 21.2693143,11.6194234 22.052356,11.6194234 C22.6928872,11.6089024 23.2092964,11.7464846 23.7287703,12.0054628 L24,10.3253414 C23.603882,10.1683359 22.9832716,10 22.2078917,10 C20.2318989,10 18.8397395,11.0512898 18.8282467,12.5574102 C18.8167539,13.6710167 19.8219895,14.2925645 20.5805133,14.6632271 C21.358958,15.0427921 21.6209935,15.2855842 21.6171626,15.6246839 C21.6125654,16.144259 20.995786,16.3813859 20.4203805,16.3813859 C19.5331375,16.3813859 19.0856851,16.23652 18.280424,15.8512898 L18,17.5864441 C18.4673733,17.8025291 19.3308645,17.9902883 20.2280679,18 C22.3304814,18 23.6950581,16.9608498 23.7103818,15.3519474 C23.7157451,14.470612 23.1832461,13.7996965 22.0293705,13.2469398 Z" id="Shape" fill="#1A1876"></path>
                            <path d="M30.1958609,10 L28.4745039,10 C27.9411137,10 27.5425645,10.1429467 27.3078728,10.6637409 L24,18 L26.3392362,18 C26.3392362,18 26.7215703,17.0135841 26.8086196,16.7970742 C27.0646469,16.7970742 29.3364626,16.800418 29.6616172,16.800418 C29.7281843,17.0804598 29.9330062,18 29.9330062,18 L32,18 L30.1958609,10 Z M27.4495413,15.1602926 C27.5417111,14.9295716 28.4506081,12.6432602 28.6323875,12.1584117 C28.9336463,13.538558 28.6400683,12.199373 29.2989119,15.1602926 L27.4495413,15.1602926 Z" id="Shape" fill="#1A1876"></path>
                            <path d="M13.6830903,10.0050178 L11.5413105,15.4660255 L11.3133903,14.3562618 L10.5466734,10.6757265 C10.4142785,10.1689316 10.0305011,10.0175622 9.55538797,10 L6.02765209,10 L6,10.1664227 C6.85805262,10.373824 7.62476957,10.6732176 8.297637,11.0445327 L10.2425004,18 L12.5568963,17.9974911 L16,10.0041815 L13.6830903,10.0041815 L13.6830903,10.0050178 Z" id="Shape" fill="#1A1876"></path>
                        </g>
                    </g>
                </g>
            </g>
        </g>
    </g>
</svg>