<?xml version="1.0" encoding="UTF-8"?>
<svg width="23px" height="23px" viewBox="0 0 23 23" version="1.1" xmlns="http://www.w3.org/2000/svg" xmlns:xlink="http://www.w3.org/1999/xlink">
    <!-- Generator: Sketch 49.1 (51147) - http://www.bohemiancoding.com/sketch -->
    <title>zoom-2</title>
    <desc>Created with Sketch.</desc>
    <defs></defs>
    <g id="Page-1" stroke="none" stroke-width="1" fill="none" fill-rule="evenodd">
        <g id="Style-Guide" transform="translate(-580.000000, -117.000000)" fill="#1C2D5B" fill-rule="nonzero">
            <g id="Icons" transform="translate(579.000000, 41.000000)">
                <g id="App-Header-Icons" transform="translate(1.000000, 44.000000)">
                    <g id="Icons" transform="translate(0.000000, 31.000000)">
                        <g id="zoom-2" transform="translate(0.000000, 1.000000)">
                            <path d="M22.707,19.879 L18.337,15.509 C19.386,13.928 20,12.035 20,10 C20,4.486 15.514,0 10,0 C4.486,0 0,4.486 0,10 C0,15.514 4.486,20 10,20 C12.035,20 13.928,19.386 15.509,18.337 L19.878,22.707 C20.269,23.098 20.902,23.098 21.292,22.707 L22.706,21.293 C23.097,20.902 23.098,20.269 22.707,19.879 Z M2,10 C2,5.589 5.589,2 10,2 C14.411,2 18,5.589 18,10 C18,14.411 14.411,18 10,18 C5.589,18 2,14.411 2,10 Z" id="Shape"></path>
                        </g>
                    </g>
                </g>
            </g>
        </g>
    </g>
</svg>